# xmcd
#
# Track frame offsets:
#	150
#	19520
#	30142
#	39967
#	53392
#	66742
#	86757
#	109455
#	127647
#	141137
#	159327
#
# Disc length: 2307 seconds
#
# Revision: 1
# Processed by: cddbd v1.5.2PL0 Copyright (c) Steve Scherf et al.
# Submitted via: audiograbber 1.83.01
#
DISCID=7f09010b
DTITLE=Best of the Blues - Volume 2
DYEAR=1900
DGENRE=Blues
TTITLE0=B.B. King - Sweet Sixteen
TTITLE1=Ray Charles - Hey Now
TTITLE2=Roy Milton - Red Light
TTITLE3=John Lee Hooker - Trouble Blues
TTITLE4=Elmore James - Dust my Broom
TTITLE5=Joe Turner - Nothin' from Nothin' Blues
TTITLE6=B.B. King - Everyday I have the Blues
TTITLE7=Sam "Lightnin" Hopkins - Shake that Thing
TTITLE8=Joe Liggins - The Honeydripper
TTITLE9=Gatemouth Moore - Boogie Woogie Papa
TTITLE10=Leadbelly - Where Did You Sleep Last Night?
EXTD=
EXTT0=
EXTT1=
EXTT2=
EXTT3=
EXTT4=
EXTT5=
EXTT6=
EXTT7=
EXTT8=
EXTT9=
EXTT10=
PLAYORDER=
